STARTFONT 2.1
COMMENT +
COMMENT  Copyright 1984-1989, 1994 Adobe Systems Incorporated.
COMMENT  Copyright 1988, 1994 Digital Equipment Corporation.
COMMENT  Copyright 1996 BIZNET Poland, Inc.
COMMENT
COMMENT  Permission to use, copy, modify, distribute and sell this software
COMMENT  and its documentation for any purpose and without fee is hereby
COMMENT  granted, provided that the above copyright notices appear in all
COMMENT  copies and that both those copyright notices and this permission
COMMENT  notice appear in supporting documentation, and that the names of
COMMENT  Adobe Systems and Digital Equipment Corporation not be used in
COMMENT  advertising or publicity pertaining to distribution of the software
COMMENT  without specific, written prior permission.  Adobe Systems and
COMMENT  Digital Equipment Corporation make no representations about the
COMMENT  suitability of this software for any purpose.  It is provided "as
COMMENT  is" without express or implied warranty.
COMMENT -
FONT -BIZNET-Aplos-Bold-O-Normal--14-140-75-75-P-82-ISO8859-2
SIZE 14 75 75
FONTBOUNDINGBOX 14 14 -1 -3
STARTPROPERTIES 25
FOUNDRY "BIZNET"
FAMILY_NAME "BIZNET Aplos"
WEIGHT_NAME "Bold"
SLANT "O"
SETWIDTH_NAME "Normal"
ADD_STYLE_NAME ""
PIXEL_SIZE 14
POINT_SIZE 140
RESOLUTION_X 75
RESOLUTION_Y 75
SPACING "P"
AVERAGE_WIDTH 82
CHARSET_REGISTRY "ISO8859"
CHARSET_ENCODING "2"
CAP_HEIGHT 11
X_HEIGHT 8
FONT_ASCENT 13
FONT_DESCENT 3
FACE_NAME "BIZNET Aplos Bold Oblique"
DEFAULT_CHAR 32
RELATIVE_SETWIDTH 50
RELATIVE_WEIGHT 70
CHARSET_COLLECTIONS "ASCII ISO8859-2"
COPYRIGHT "Copyright (c) 1984, 1987 Adobe Systems Incorporated. All Rights Reserved. Copyright (c) 1988, 1991 Digital Equipment Corporation. All Rights Reserved. Copyright (c) 1996 BIZNET Poland, Inc. All Rights Reserved."
NOTICE "The name "BIZNET" is a registered trademark of BIZNET Poland, Inc."
ENDPROPERTIES
CHARS 190
STARTCHAR space
ENCODING 32
SWIDTH 278 0
DWIDTH 4 0
BBX 1 1 0 0
BITMAP
00
ENDCHAR
STARTCHAR exclam
ENCODING 33
SWIDTH 333 0
DWIDTH 5 0
BBX 5 11 2 0
BITMAP
18
18
30
30
30
60
60
40
00
C0
C0
ENDCHAR
STARTCHAR quotedbl
ENCODING 34
SWIDTH 474 0
DWIDTH 7 0
BBX 5 3 4 8
BITMAP
D8
D8
90
ENDCHAR
STARTCHAR numbersign
ENCODING 35
SWIDTH 556 0
DWIDTH 10 0
BBX 10 10 1 0
BITMAP
0D80
0D80
1B00
7FC0
1B00
3600
FF00
6C00
D800
D800
ENDCHAR
STARTCHAR dollar
ENCODING 36
SWIDTH 556 0
DWIDTH 8 0
BBX 8 12 1 -1
BITMAP
04
3E
6B
68
38
1C
16
16
A6
EC
78
40
ENDCHAR
STARTCHAR percent
ENCODING 37
SWIDTH 889 0
DWIDTH 13 0
BBX 11 10 2 0
BITMAP
3860
64C0
4D80
3B00
0600
0C00
1B80
3640
64C0
C380
ENDCHAR
STARTCHAR ampersand
ENCODING 38
SWIDTH 722 0
DWIDTH 11 0
BBX 10 10 1 0
BITMAP
0E00
1B00
1300
1600
3CC0
66C0
C380
C300
E780
7CC0
ENDCHAR
STARTCHAR quoteright
ENCODING 39
SWIDTH 278 0
DWIDTH 5 0
BBX 3 3 4 8
BITMAP
E0
60
C0
ENDCHAR
STARTCHAR parenleft
ENCODING 40
SWIDTH 333 0
DWIDTH 5 0
BBX 6 14 2 -3
BITMAP
0C
18
30
60
60
C0
C0
C0
C0
C0
C0
60
60
30
ENDCHAR
STARTCHAR parenright
ENCODING 41
SWIDTH 333 0
DWIDTH 6 0
BBX 6 14 0 -3
BITMAP
30
18
18
0C
0C
0C
0C
0C
0C
18
18
30
60
C0
ENDCHAR
STARTCHAR asterisk
ENCODING 42
SWIDTH 389 0
DWIDTH 6 0
BBX 5 4 3 7
BITMAP
20
F8
60
A0
ENDCHAR
STARTCHAR plus
ENCODING 43
SWIDTH 584 0
DWIDTH 9 0
BBX 7 7 2 1
BITMAP
18
18
18
FE
30
30
30
ENDCHAR
STARTCHAR comma
ENCODING 44
SWIDTH 278 0
DWIDTH 4 0
BBX 3 4 0 -2
BITMAP
60
60
20
C0
ENDCHAR
STARTCHAR minus
ENCODING 45
SWIDTH 584 0
DWIDTH 9 0
BBX 7 1 2 4
BITMAP
FE
ENDCHAR
STARTCHAR period
ENCODING 46
SWIDTH 278 0
DWIDTH 4 0
BBX 2 2 1 0
BITMAP
C0
C0
ENDCHAR
STARTCHAR slash
ENCODING 47
SWIDTH 278 0
DWIDTH 4 0
BBX 7 11 0 0
BITMAP
06
04
0C
08
18
10
30
20
60
40
C0
ENDCHAR
STARTCHAR zero
ENCODING 48
SWIDTH 556 0
DWIDTH 8 0
BBX 8 10 1 0
BITMAP
1E
33
63
63
C3
C3
C6
C6
CC
78
ENDCHAR
STARTCHAR one
ENCODING 49
SWIDTH 556 0
DWIDTH 8 0
BBX 5 10 3 0
BITMAP
18
F8
30
30
30
60
60
60
C0
C0
ENDCHAR
STARTCHAR two
ENCODING 50
SWIDTH 556 0
DWIDTH 8 0
BBX 8 10 1 0
BITMAP
3E
63
63
07
0E
38
70
C0
C0
FC
ENDCHAR
STARTCHAR three
ENCODING 51
SWIDTH 556 0
DWIDTH 8 0
BBX 8 10 1 0
BITMAP
1E
33
33
06
1C
06
06
C6
CC
78
ENDCHAR
STARTCHAR four
ENCODING 52
SWIDTH 556 0
DWIDTH 8 0
BBX 8 10 1 0
BITMAP
03
07
1B
33
66
C6
FF
0C
0C
0C
ENDCHAR
STARTCHAR five
ENCODING 53
SWIDTH 556 0
DWIDTH 8 0
BBX 8 10 1 0
BITMAP
3F
30
60
7C
0E
06
06
C6
CC
78
ENDCHAR
STARTCHAR six
ENCODING 54
SWIDTH 556 0
DWIDTH 8 0
BBX 8 10 1 0
BITMAP
1E
33
60
40
DC
F6
C6
C6
CC
78
ENDCHAR
STARTCHAR seven
ENCODING 55
SWIDTH 556 0
DWIDTH 8 0
BBX 7 10 2 0
BITMAP
7E
06
0C
18
30
30
60
60
C0
C0
ENDCHAR
STARTCHAR eight
ENCODING 56
SWIDTH 556 0
DWIDTH 8 0
BBX 8 10 1 0
BITMAP
1E
33
63
66
3C
66
C6
C6
CC
78
ENDCHAR
STARTCHAR nine
ENCODING 57
SWIDTH 556 0
DWIDTH 8 0
BBX 8 10 1 0
BITMAP
1E
33
63
63
63
3E
06
C6
CC
78
ENDCHAR
STARTCHAR colon
ENCODING 58
SWIDTH 333 0
DWIDTH 5 0
BBX 4 8 2 0
BITMAP
30
30
00
00
00
00
C0
C0
ENDCHAR
STARTCHAR semicolon
ENCODING 59
SWIDTH 333 0
DWIDTH 5 0
BBX 5 10 1 -2
BITMAP
18
18
00
00
00
00
60
60
20
C0
ENDCHAR
STARTCHAR less
ENCODING 60
SWIDTH 584 0
DWIDTH 8 0
BBX 8 5 1 2
BITMAP
07
3C
E0
38
0E
ENDCHAR
STARTCHAR equal
ENCODING 61
SWIDTH 584 0
DWIDTH 9 0
BBX 8 3 2 3
BITMAP
7F
00
FE
ENDCHAR
STARTCHAR greater
ENCODING 62
SWIDTH 584 0
DWIDTH 9 0
BBX 8 5 1 2
BITMAP
70
1C
07
3C
E0
ENDCHAR
STARTCHAR question
ENCODING 63
SWIDTH 611 0
DWIDTH 9 0
BBX 8 11 3 0
BITMAP
3E
63
63
06
1C
30
60
60
00
C0
C0
ENDCHAR
STARTCHAR at
ENCODING 64
SWIDTH 975 0
DWIDTH 14 0
BBX 13 13 2 -2
BITMAP
07E0
1C30
3018
6348
4CC8
C998
9190
9330
9B60
CDC0
4000
71C0
1F00
ENDCHAR
STARTCHAR A
ENCODING 65
SWIDTH 722 0
DWIDTH 9 0
BBX 9 11 0 0
BITMAP
0300
0700
0D80
0D80
1980
1980
3180
7F80
6180
C180
C180
ENDCHAR
STARTCHAR B
ENCODING 66
SWIDTH 722 0
DWIDTH 10 0
BBX 10 11 1 0
BITMAP
1F80
18C0
18C0
30C0
3180
3F00
6180
6180
6180
C300
FE00
ENDCHAR
STARTCHAR C
ENCODING 67
SWIDTH 722 0
DWIDTH 11 0
BBX 10 11 2 0
BITMAP
0780
1CC0
30C0
6000
6000
C000
C000
C000
C180
6700
3C00
ENDCHAR
STARTCHAR D
ENCODING 68
SWIDTH 722 0
DWIDTH 11 0
BBX 11 11 1 0
BITMAP
1F80
18C0
1860
3060
3060
3060
60C0
60C0
6180
C700
FC00
ENDCHAR
STARTCHAR E
ENCODING 69
SWIDTH 667 0
DWIDTH 9 0
BBX 10 11 1 0
BITMAP
1FC0
1800
1800
3000
3000
3F80
6000
6000
6000
C000
FE00
ENDCHAR
STARTCHAR F
ENCODING 70
SWIDTH 611 0
DWIDTH 8 0
BBX 10 11 1 0
BITMAP
1FC0
1800
1800
3000
3000
3F00
6000
6000
6000
C000
C000
ENDCHAR
STARTCHAR G
ENCODING 71
SWIDTH 778 0
DWIDTH 11 0
BBX 10 11 2 0
BITMAP
0780
1CC0
30C0
6000
6000
C3C0
C180
C180
C300
6700
3D00
ENDCHAR
STARTCHAR H
ENCODING 72
SWIDTH 722 0
DWIDTH 10 0
BBX 11 11 1 0
BITMAP
1860
1860
1860
30C0
30C0
3FC0
6180
6180
6180
C300
C300
ENDCHAR
STARTCHAR I
ENCODING 73
SWIDTH 278 0
DWIDTH 4 0
BBX 5 11 1 0
BITMAP
18
18
18
30
30
30
60
60
60
C0
C0
ENDCHAR
STARTCHAR J
ENCODING 74
SWIDTH 556 0
DWIDTH 8 0
BBX 9 11 1 0
BITMAP
0180
0180
0180
0300
0300
0300
0600
C600
C600
EC00
7800
ENDCHAR
STARTCHAR K
ENCODING 75
SWIDTH 722 0
DWIDTH 10 0
BBX 11 11 1 0
BITMAP
1860
18C0
1980
3300
3600
3C00
7600
6600
6300
C300
C180
ENDCHAR
STARTCHAR L
ENCODING 76
SWIDTH 611 0
DWIDTH 8 0
BBX 7 11 1 0
BITMAP
18
18
18
30
30
30
60
60
60
C0
FE
ENDCHAR
STARTCHAR M
ENCODING 77
SWIDTH 833 0
DWIDTH 13 0
BBX 14 11 1 0
BITMAP
180C
181C
183C
3C68
34D8
3498
65B0
6730
6730
C660
C660
ENDCHAR
STARTCHAR N
ENCODING 78
SWIDTH 722 0
DWIDTH 11 0
BBX 12 11 1 0
BITMAP
1830
1830
1C30
3C60
3460
3660
66C0
66C0
63C0
C180
C180
ENDCHAR
STARTCHAR O
ENCODING 79
SWIDTH 778 0
DWIDTH 12 0
BBX 11 11 2 0
BITMAP
0780
1CC0
3060
6060
6060
C060
C0C0
C0C0
C180
6700
3C00
ENDCHAR
STARTCHAR P
ENCODING 80
SWIDTH 667 0
DWIDTH 10 0
BBX 11 11 1 0
BITMAP
1FC0
1860
1860
3060
30C0
3F80
6000
6000
6000
C000
C000
ENDCHAR
STARTCHAR Q
ENCODING 81
SWIDTH 778 0
DWIDTH 12 0
BBX 11 11 2 0
BITMAP
0780
1CC0
3060
6060
6060
C060
C0C0
C6C0
C380
6700
3D80
ENDCHAR
STARTCHAR R
ENCODING 82
SWIDTH 722 0
DWIDTH 10 0
BBX 10 11 1 0
BITMAP
1F80
18C0
18C0
30C0
3180
3F00
6180
6180
6180
C300
C300
ENDCHAR
STARTCHAR S
ENCODING 83
SWIDTH 667 0
DWIDTH 10 0
BBX 10 11 1 0
BITMAP
0780
18C0
30C0
3800
1E00
0700
0380
0180
C180
C300
7C00
ENDCHAR
STARTCHAR T
ENCODING 84
SWIDTH 611 0
DWIDTH 8 0
BBX 8 11 3 0
BITMAP
FF
18
18
30
30
30
60
60
60
C0
C0
ENDCHAR
STARTCHAR U
ENCODING 85
SWIDTH 722 0
DWIDTH 11 0
BBX 11 11 2 0
BITMAP
3060
3060
3060
60C0
60C0
60C0
C180
C180
C180
C300
7E00
ENDCHAR
STARTCHAR V
ENCODING 86
SWIDTH 667 0
DWIDTH 10 0
BBX 9 11 3 0
BITMAP
C180
C180
C300
C300
C600
C600
CC00
CC00
5800
7000
6000
ENDCHAR
STARTCHAR W
ENCODING 87
SWIDTH 944 0
DWIDTH 14 0
BBX 13 11 3 0
BITMAP
C618
C618
C630
CE30
CE60
CA60
DAC0
D2C0
7380
6380
6300
ENDCHAR
STARTCHAR X
ENCODING 88
SWIDTH 667 0
DWIDTH 9 0
BBX 12 11 0 0
BITMAP
1830
1860
0CC0
0D80
0700
0600
0E00
1B00
3300
6180
C180
ENDCHAR
STARTCHAR Y
ENCODING 89
SWIDTH 667 0
DWIDTH 10 0
BBX 10 11 3 0
BITMAP
C0C0
C180
C300
6600
6C00
7800
3000
3000
6000
6000
6000
ENDCHAR
STARTCHAR Z
ENCODING 90
SWIDTH 611 0
DWIDTH 9 0
BBX 11 11 0 0
BITMAP
1FE0
00C0
0180
0300
0600
0C00
1800
3000
6000
C000
FF00
ENDCHAR
STARTCHAR bracketleft
ENCODING 91
SWIDTH 333 0
DWIDTH 5 0
BBX 8 14 0 -3
BITMAP
0F
0C
0C
18
18
18
30
30
30
60
60
C0
C0
F0
ENDCHAR
STARTCHAR backslash
ENCODING 92
SWIDTH 278 0
DWIDTH 6 0
BBX 3 11 3 0
BITMAP
C0
C0
C0
40
40
40
40
60
60
60
60
ENDCHAR
STARTCHAR bracketright
ENCODING 93
SWIDTH 333 0
DWIDTH 5 0
BBX 8 14 -1 -3
BITMAP
0F
03
03
06
06
06
0C
0C
0C
18
18
30
30
F0
ENDCHAR
STARTCHAR asciicircum
ENCODING 94
SWIDTH 584 0
DWIDTH 8 0
BBX 6 6 3 5
BITMAP
18
38
6C
6C
CC
CC
ENDCHAR
STARTCHAR underscore
ENCODING 95
SWIDTH 556 0
DWIDTH 8 0
BBX 8 1 -1 -3
BITMAP
FF
ENDCHAR
STARTCHAR quoteleft
ENCODING 96
SWIDTH 278 0
DWIDTH 5 0
BBX 3 3 4 8
BITMAP
60
C0
E0
ENDCHAR
STARTCHAR a
ENCODING 97
SWIDTH 556 0
DWIDTH 8 0
BBX 8 8 1 0
BITMAP
1E
33
03
3E
66
C6
CC
76
ENDCHAR
STARTCHAR b
ENCODING 98
SWIDTH 611 0
DWIDTH 9 0
BBX 9 11 1 0
BITMAP
1800
1800
3000
3700
3980
7180
6180
6300
C300
E600
DC00
ENDCHAR
STARTCHAR c
ENCODING 99
SWIDTH 556 0
DWIDTH 8 0
BBX 8 8 1 0
BITMAP
1E
33
63
60
C0
C6
CC
78
ENDCHAR
STARTCHAR d
ENCODING 100
SWIDTH 611 0
DWIDTH 9 0
BBX 10 11 1 0
BITMAP
00C0
00C0
0180
1D80
3380
6180
6300
C300
C300
CE00
7600
ENDCHAR
STARTCHAR e
ENCODING 101
SWIDTH 556 0
DWIDTH 8 0
BBX 8 8 1 0
BITMAP
1E
33
63
7E
C0
C0
CC
78
ENDCHAR
STARTCHAR f
ENCODING 102
SWIDTH 333 0
DWIDTH 5 0
BBX 7 11 1 0
BITMAP
0E
18
18
7C
30
30
60
60
60
C0
C0
ENDCHAR
STARTCHAR g
ENCODING 103
SWIDTH 611 0
DWIDTH 9 0
BBX 10 11 0 -3
BITMAP
0EC0
19C0
30C0
3180
6180
6180
6700
3B00
0300
C600
7C00
ENDCHAR
STARTCHAR h
ENCODING 104
SWIDTH 611 0
DWIDTH 9 0
BBX 9 11 1 0
BITMAP
1800
1800
3000
3700
3B80
3180
6300
6300
6300
C600
C600
ENDCHAR
STARTCHAR i
ENCODING 105
SWIDTH 278 0
DWIDTH 4 0
BBX 5 11 1 0
BITMAP
18
18
00
30
30
30
60
60
60
C0
C0
ENDCHAR
STARTCHAR j
ENCODING 106
SWIDTH 278 0
DWIDTH 4 0
BBX 7 14 -1 -3
BITMAP
06
06
00
0C
0C
0C
18
18
18
30
30
30
E0
C0
ENDCHAR
STARTCHAR k
ENCODING 107
SWIDTH 556 0
DWIDTH 8 0
BBX 8 11 1 0
BITMAP
18
18
30
33
36
3C
78
6C
6C
CC
CC
ENDCHAR
STARTCHAR l
ENCODING 108
SWIDTH 278 0
DWIDTH 4 0
BBX 5 11 1 0
BITMAP
18
18
30
30
30
60
60
60
60
C0
C0
ENDCHAR
STARTCHAR m
ENCODING 109
SWIDTH 889 0
DWIDTH 12 0
BBX 12 8 1 0
BITMAP
36E0
3BB0
3330
6660
6660
6660
CCC0
CCC0
ENDCHAR
STARTCHAR n
ENCODING 110
SWIDTH 611 0
DWIDTH 9 0
BBX 9 8 1 0
BITMAP
3700
3980
3180
6300
6300
6300
C600
C600
ENDCHAR
STARTCHAR o
ENCODING 111
SWIDTH 611 0
DWIDTH 8 0
BBX 8 8 1 0
BITMAP
1E
33
63
63
C6
C6
CC
78
ENDCHAR
STARTCHAR p
ENCODING 112
SWIDTH 611 0
DWIDTH 9 0
BBX 10 11 0 -3
BITMAP
1B80
1CC0
38C0
30C0
3180
3180
7B00
6E00
6000
C000
C000
ENDCHAR
STARTCHAR q
ENCODING 113
SWIDTH 611 0
DWIDTH 9 0
BBX 9 11 1 -3
BITMAP
1D80
3380
6180
6300
C300
C300
CE00
7600
0600
0C00
0C00
ENDCHAR
STARTCHAR r
ENCODING 114
SWIDTH 389 0
DWIDTH 6 0
BBX 7 8 1 0
BITMAP
36
3E
30
60
60
60
C0
C0
ENDCHAR
STARTCHAR s
ENCODING 115
SWIDTH 556 0
DWIDTH 8 0
BBX 8 8 1 0
BITMAP
1E
33
30
1C
06
C6
CC
78
ENDCHAR
STARTCHAR t
ENCODING 116
SWIDTH 333 0
DWIDTH 5 0
BBX 6 10 1 0
BITMAP
18
18
7C
30
30
60
60
C0
C0
60
ENDCHAR
STARTCHAR u
ENCODING 117
SWIDTH 611 0
DWIDTH 9 0
BBX 9 8 1 0
BITMAP
3180
3180
6180
6300
6300
C600
CE00
7600
ENDCHAR
STARTCHAR v
ENCODING 118
SWIDTH 556 0
DWIDTH 8 0
BBX 8 8 2 0
BITMAP
C3
C3
C6
CC
CC
58
70
60
ENDCHAR
STARTCHAR w
ENCODING 119
SWIDTH 778 0
DWIDTH 11 0
BBX 10 8 2 0
BITMAP
CCC0
CCC0
CCC0
DD80
D580
7700
6600
6600
ENDCHAR
STARTCHAR x
ENCODING 120
SWIDTH 556 0
DWIDTH 7 0
BBX 9 8 0 0
BITMAP
3180
3300
1600
1C00
1C00
3400
6600
C600
ENDCHAR
STARTCHAR y
ENCODING 121
SWIDTH 556 0
DWIDTH 7 0
BBX 9 11 0 -3
BITMAP
3180
3180
3300
3300
3600
3600
1C00
1800
3000
6000
C000
ENDCHAR
STARTCHAR z
ENCODING 122
SWIDTH 500 0
DWIDTH 6 0
BBX 8 8 0 0
BITMAP
3F
06
0C
18
30
60
C0
FC
ENDCHAR
STARTCHAR braceleft
ENCODING 123
SWIDTH 389 0
DWIDTH 6 0
BBX 7 14 1 -3
BITMAP
06
0C
18
18
18
30
C0
60
60
60
C0
C0
C0
60
ENDCHAR
STARTCHAR bar
ENCODING 124
SWIDTH 280 0
DWIDTH 4 0
BBX 6 14 0 -3
BITMAP
0C
0C
0C
08
18
18
10
30
30
20
60
60
40
C0
ENDCHAR
STARTCHAR braceright
ENCODING 125
SWIDTH 389 0
DWIDTH 6 0
BBX 7 14 0 -3
BITMAP
0C
06
06
06
0C
0C
06
18
18
30
30
30
60
C0
ENDCHAR
STARTCHAR asciitilde
ENCODING 126
SWIDTH 584 0
DWIDTH 9 0
BBX 8 3 2 3
BITMAP
71
DB
8E
ENDCHAR
STARTCHAR Aogonek
ENCODING 161
SWIDTH 722 0
DWIDTH 9 0
BBX 9 14 0 -3
BITMAP
0300
0700
0D80
0D80
1980
1980
3180
7F80
6180
C180
C180
0200
0400
0700
ENDCHAR
STARTCHAR breve
ENCODING 162
SWIDTH 404 0
DWIDTH 6 0
BBX 4 3 1 8
BITMAP
90
90
60
ENDCHAR
STARTCHAR Lslash
ENCODING 163
SWIDTH 611 0
DWIDTH 9 0
BBX 7 11 1 0
BITMAP
18
18
18
30
3C
70
E0
60
60
C0
FE
ENDCHAR
STARTCHAR currency
ENCODING 164
SWIDTH 556 0
DWIDTH 9 0
BBX 8 6 1 2
BITMAP
63
3E
36
6C
7C
C6
ENDCHAR
STARTCHAR Lcaron
ENCODING 165
SWIDTH 611 0
DWIDTH 8 0
BBX 8 11 1 0
BITMAP
1B
19
1A
30
30
30
60
60
60
C0
FE
ENDCHAR
STARTCHAR Sacute
ENCODING 166
SWIDTH 667 0
DWIDTH 10 0
BBX 10 14 1 0
BITMAP
0180
0300
0000
0780
18C0
30C0
3800
1E00
0700
0380
0180
C180
C300
7C00
ENDCHAR
STARTCHAR section
ENCODING 167
SWIDTH 556 0
DWIDTH 9 0
BBX 9 14 1 -3
BITMAP
0F00
1D80
1980
1800
3C00
6600
6300
6300
3300
1E00
0C00
CC00
DC00
7800
ENDCHAR
STARTCHAR dieresis
ENCODING 168
SWIDTH 333 0
DWIDTH 5 0
BBX 5 2 3 9
BITMAP
D8
D8
ENDCHAR
STARTCHAR Scaron
ENCODING 169
SWIDTH 667 0
DWIDTH 10 0
BBX 10 14 1 0
BITMAP
06C0
0380
0000
0780
18C0
30C0
3800
1E00
0700
0380
0180
C180
C300
7C00
ENDCHAR
STARTCHAR Scedilla
ENCODING 170
SWIDTH 667 0
DWIDTH 10 0
BBX 10 14 1 -3
BITMAP
0780
18C0
30C0
3800
1E00
0700
0380
0180
C180
C300
7C00
1000
D800
7000
ENDCHAR
STARTCHAR Tcaron
ENCODING 171
SWIDTH 611 0
DWIDTH 8 0
BBX 8 14 3 0
BITMAP
36
1C
00
FF
18
18
30
30
30
60
60
60
C0
C0
ENDCHAR
STARTCHAR Zacute
ENCODING 172
SWIDTH 611 0
DWIDTH 9 0
BBX 11 14 0 0
BITMAP
0180
0300
0000
1FE0
00C0
0180
0300
0600
0C00
1800
3000
6000
C000
FF00
ENDCHAR
STARTCHAR hyphen
ENCODING 173
SWIDTH 333 0
DWIDTH 5 0
BBX 5 1 1 4
BITMAP
F8
ENDCHAR
STARTCHAR Zcaron
ENCODING 174
SWIDTH 611 0
DWIDTH 9 0
BBX 11 14 0 0
BITMAP
06C0
0380
0000
1FE0
00C0
0180
0300
0600
0C00
1800
3000
6000
C000
FF00
ENDCHAR
STARTCHAR Zdotaccent
ENCODING 175
SWIDTH 611 0
DWIDTH 9 0
BBX 11 14 0 0
BITMAP
0300
0300
0000
1FE0
00C0
0180
0300
0600
0C00
1800
3000
6000
C000
FF00
ENDCHAR
STARTCHAR degree
ENCODING 176
SWIDTH 400 0
DWIDTH 6 0
BBX 4 4 3 6
BITMAP
60
90
90
60
ENDCHAR
STARTCHAR aogonek
ENCODING 177
SWIDTH 556 0
DWIDTH 8 0
BBX 8 11 1 -3
BITMAP
1E
33
03
3E
66
C6
CC
76
02
04
07
ENDCHAR
STARTCHAR ogonek
ENCODING 178
SWIDTH 472 0
DWIDTH 7 0
BBX 3 4 3 -3
BITMAP
60
C0
80
E0
ENDCHAR
STARTCHAR lslash
ENCODING 179
SWIDTH 278 0
DWIDTH 4 0
BBX 5 11 1 0
BITMAP
18
18
30
30
38
60
E0
60
60
C0
C0
ENDCHAR
STARTCHAR acute
ENCODING 180
SWIDTH 333 0
DWIDTH 5 0
BBX 3 2 4 9
BITMAP
60
C0
ENDCHAR
STARTCHAR lcaron
ENCODING 181
SWIDTH 417 0
DWIDTH 6 0
BBX 8 11 1 0
BITMAP
1B
19
32
30
30
60
60
60
60
C0
C0
ENDCHAR
STARTCHAR sacute
ENCODING 182
SWIDTH 556 0
DWIDTH 8 0
BBX 8 11 1 0
BITMAP
03
06
00
1E
33
30
1C
06
C6
CC
78
ENDCHAR
STARTCHAR caron
ENCODING 183
SWIDTH 472 0
DWIDTH 7 0
BBX 5 2 1 9
BITMAP
D8
70
ENDCHAR
STARTCHAR cedilla
ENCODING 184
SWIDTH 606 0
DWIDTH 9 0
BBX 5 4 3 -3
BITMAP
30
18
D8
70
ENDCHAR
STARTCHAR scaron
ENCODING 185
SWIDTH 556 0
DWIDTH 8 0
BBX 8 11 1 0
BITMAP
1B
0E
00
1E
33
30
1C
06
C6
CC
78
ENDCHAR
STARTCHAR scedilla
ENCODING 186
SWIDTH 556 0
DWIDTH 8 0
BBX 8 11 1 -3
BITMAP
1E
33
30
1C
06
C6
CC
78
10
D8
70
ENDCHAR
STARTCHAR tcaron
ENCODING 187
SWIDTH 399 0
DWIDTH 6 0
BBX 9 12 1 0
BITMAP
0180
0080
1900
1800
7C00
3000
3000
6000
6000
C000
C000
6000
ENDCHAR
STARTCHAR zacute
ENCODING 188
SWIDTH 500 0
DWIDTH 6 0
BBX 8 11 0 0
BITMAP
06
0C
00
3F
06
0C
18
30
60
C0
FC
ENDCHAR
STARTCHAR hungarumlaut
ENCODING 189
SWIDTH 539 0
DWIDTH 8 0
BBX 6 2 1 9
BITMAP
6C
D8
ENDCHAR
STARTCHAR zcaron
ENCODING 190
SWIDTH 500 0
DWIDTH 6 0
BBX 8 11 0 0
BITMAP
1B
0E
00
3F
06
0C
18
30
60
C0
FC
ENDCHAR
STARTCHAR zdotaccent
ENCODING 191
SWIDTH 500 0
DWIDTH 6 0
BBX 8 11 0 0
BITMAP
0C
0C
00
3F
06
0C
18
30
60
C0
FC
ENDCHAR
STARTCHAR Racute
ENCODING 192
SWIDTH 722 0
DWIDTH 10 0
BBX 10 14 1 0
BITMAP
0300
0600
0000
1F80
18C0
18C0
30C0
3180
3F00
6180
6180
6180
C300
C300
ENDCHAR
STARTCHAR Aacute
ENCODING 193
SWIDTH 722 0
DWIDTH 9 0
BBX 10 14 0 0
BITMAP
00C0
0180
0000
0300
0700
0D80
0D80
1980
1980
3180
7F80
6180
C180
C180
ENDCHAR
STARTCHAR Acircumflex
ENCODING 194
SWIDTH 722 0
DWIDTH 9 0
BBX 10 14 0 0
BITMAP
0380
06C0
0000
0300
0700
0D80
0D80
1980
1980
3180
7F80
6180
C180
C180
ENDCHAR
STARTCHAR Abreve
ENCODING 195
SWIDTH 722 0
DWIDTH 9 0
BBX 9 14 0 0
BITMAP
0480
0300
0000
0300
0700
0D80
0D80
1980
1980
3180
7F80
6180
C180
C180
ENDCHAR
STARTCHAR Adieresis
ENCODING 196
SWIDTH 722 0
DWIDTH 9 0
BBX 10 14 0 0
BITMAP
06C0
06C0
0000
0300
0700
0D80
0D80
1980
1980
3180
7F80
6180
C180
C180
ENDCHAR
STARTCHAR Lacute
ENCODING 197
SWIDTH 611 0
DWIDTH 8 0
BBX 7 14 1 0
BITMAP
0C
18
00
18
18
18
30
30
30
60
60
60
C0
FE
ENDCHAR
STARTCHAR Cacute
ENCODING 198
SWIDTH 722 0
DWIDTH 11 0
BBX 10 14 2 0
BITMAP
0180
0300
0000
0780
1CC0
30C0
6000
6000
C000
C000
C000
C180
6700
3C00
ENDCHAR
STARTCHAR Ccedilla
ENCODING 199
SWIDTH 722 0
DWIDTH 11 0
BBX 10 14 2 -3
BITMAP
0780
1CC0
30C0
6000
6000
C000
C000
C000
C180
6700
3C00
1000
D800
7000
ENDCHAR
STARTCHAR Ccaron
ENCODING 200
SWIDTH 722 0
DWIDTH 11 0
BBX 10 14 2 0
BITMAP
06C0
0380
0000
0780
1CC0
30C0
6000
6000
C000
C000
C000
C180
6700
3C00
ENDCHAR
STARTCHAR Eacute
ENCODING 201
SWIDTH 667 0
DWIDTH 9 0
BBX 10 14 1 0
BITMAP
0180
0300
0000
1FC0
1800
1800
3000
3000
3F80
6000
6000
6000
C000
FE00
ENDCHAR
STARTCHAR Eogonek
ENCODING 202
SWIDTH 667 0
DWIDTH 9 0
BBX 10 14 1 -3
BITMAP
1FC0
1800
1800
3000
3000
3F80
6000
6000
6000
C000
FE00
0400
0800
0E00
ENDCHAR
STARTCHAR Edieresis
ENCODING 203
SWIDTH 667 0
DWIDTH 9 0
BBX 10 14 1 0
BITMAP
0D80
0D80
0000
1FC0
1800
1800
3000
3000
3F80
6000
6000
6000
C000
FE00
ENDCHAR
STARTCHAR Ecaron
ENCODING 204
SWIDTH 667 0
DWIDTH 9 0
BBX 10 14 1 0
BITMAP
0D80
0700
0000
1FC0
1800
1800
3000
3000
3F80
6000
6000
6000
C000
FE00
ENDCHAR
STARTCHAR Iacute
ENCODING 205
SWIDTH 278 0
DWIDTH 4 0
BBX 7 14 1 0
BITMAP
06
0C
00
18
18
18
30
30
30
60
60
60
C0
C0
ENDCHAR
STARTCHAR Icircumflex
ENCODING 206
SWIDTH 278 0
DWIDTH 4 0
BBX 7 14 1 0
BITMAP
1C
36
00
18
18
18
30
30
30
60
60
60
C0
C0
ENDCHAR
STARTCHAR Dcaron
ENCODING 207
SWIDTH 722 0
DWIDTH 11 0
BBX 11 14 1 0
BITMAP
06C0
0380
0000
1F80
18C0
1860
3060
3060
3060
60C0
60C0
6180
C700
FC00
ENDCHAR
STARTCHAR Eth
ENCODING 208
SWIDTH 722 0
DWIDTH 11 0
BBX 12 11 0 0
BITMAP
0FC0
0C60
0C30
1830
1830
FE30
3060
3060
60C0
6380
7E00
ENDCHAR
STARTCHAR Nacute
ENCODING 209
SWIDTH 722 0
DWIDTH 11 0
BBX 12 14 1 0
BITMAP
00C0
0180
0000
1830
1830
1C30
3C60
3460
3660
66C0
66C0
63C0
C180
C180
ENDCHAR
STARTCHAR Ncaron
ENCODING 210
SWIDTH 722 0
DWIDTH 11 0
BBX 12 14 1 0
BITMAP
0360
01C0
0000
1830
1830
1C30
3C60
3460
3660
66C0
66C0
63C0
C180
C180
ENDCHAR
STARTCHAR Oacute
ENCODING 211
SWIDTH 778 0
DWIDTH 12 0
BBX 11 14 2 0
BITMAP
00C0
0180
0000
0780
1CC0
3060
6060
C060
C060
C0C0
C0C0
C180
6700
3C00
ENDCHAR
STARTCHAR Ocircumflex
ENCODING 212
SWIDTH 778 0
DWIDTH 12 0
BBX 11 14 2 0
BITMAP
01C0
0360
0000
0780
1CC0
3060
6060
C060
C060
C0C0
C0C0
C180
6700
3C00
ENDCHAR
STARTCHAR Ohungarumlaut
ENCODING 213
SWIDTH 778 0
DWIDTH 12 0
BBX 11 14 2 0
BITMAP
0360
06C0
0000
0780
1CC0
3060
6060
6060
C060
C0C0
C0C0
C180
6700
3C00
ENDCHAR
STARTCHAR Odieresis
ENCODING 214
SWIDTH 778 0
DWIDTH 12 0
BBX 11 14 2 0
BITMAP
06C0
06C0
0000
0780
1CC0
3060
6060
C060
C060
C0C0
C0C0
C180
6700
3C00
ENDCHAR
STARTCHAR multiply
ENCODING 215
SWIDTH 584 0
DWIDTH 9 0
BBX 9 7 1 1
BITMAP
6180
3300
1E00
1C00
3C00
6600
C300
ENDCHAR
STARTCHAR Rcaron
ENCODING 216
SWIDTH 722 0
DWIDTH 10 0
BBX 10 14 1 0
BITMAP
0D80
0700
0000
1F80
18C0
18C0
30C0
3180
3F00
6180
6180
6180
C300
C300
ENDCHAR
STARTCHAR Uring
ENCODING 217
SWIDTH 722 0
DWIDTH 11 0
BBX 11 14 2 0
BITMAP
0700
0D80
0700
3060
3060
3060
60C0
60C0
60C0
C180
C180
C180
C300
7E00
ENDCHAR
STARTCHAR Uacute
ENCODING 218
SWIDTH 722 0
DWIDTH 11 0
BBX 11 14 2 0
BITMAP
0180
0300
0000
3060
3060
3060
60C0
60C0
60C0
C180
C180
C180
C300
7E00
ENDCHAR
STARTCHAR Uhungarumlaut
ENCODING 219
SWIDTH 722 0
DWIDTH 11 0
BBX 11 14 2 0
BITMAP
06C0
0D80
0000
3060
3060
3060
60C0
60C0
60C0
C180
C180
C180
C300
7E00
ENDCHAR
STARTCHAR Udieresis
ENCODING 220
SWIDTH 722 0
DWIDTH 11 0
BBX 11 14 2 0
BITMAP
0D80
0D80
0000
3060
3060
3060
60C0
60C0
60C0
C180
C180
C180
C300
7E00
ENDCHAR
STARTCHAR Yacute
ENCODING 221
SWIDTH 667 0
DWIDTH 10 0
BBX 10 14 3 0
BITMAP
0600
0C00
0000
C0C0
C180
C300
6600
6C00
7800
3000
3000
6000
6000
6000
ENDCHAR
STARTCHAR Tcedilla
ENCODING 222
SWIDTH 611 0
DWIDTH 8 0
BBX 10 14 1 -3
BITMAP
3FC0
0600
0600
0C00
0C00
0C00
1800
1800
1800
3000
3000
1000
D800
7000
ENDCHAR
STARTCHAR germandbls
ENCODING 223
SWIDTH 611 0
DWIDTH 9 0
BBX 9 11 1 0
BITMAP
0F00
1980
1980
3300
3600
3300
6300
6300
6300
C600
DC00
ENDCHAR
STARTCHAR racute
ENCODING 224
SWIDTH 389 0
DWIDTH 6 0
BBX 7 11 1 0
BITMAP
06
0C
00
36
3E
30
60
60
60
C0
C0
ENDCHAR
STARTCHAR aacute
ENCODING 225
SWIDTH 556 0
DWIDTH 8 0
BBX 8 11 1 0
BITMAP
03
06
00
1E
33
03
3E
66
C6
CC
76
ENDCHAR
STARTCHAR acircumflex
ENCODING 226
SWIDTH 556 0
DWIDTH 8 0
BBX 8 11 1 0
BITMAP
0E
1B
00
1E
33
03
3E
66
C6
CC
76
ENDCHAR
STARTCHAR abreve
ENCODING 227
SWIDTH 556 0
DWIDTH 8 0
BBX 8 11 1 0
BITMAP
12
0C
00
1E
33
03
3E
66
C6
CC
76
ENDCHAR
STARTCHAR adieresis
ENCODING 228
SWIDTH 556 0
DWIDTH 8 0
BBX 8 11 1 0
BITMAP
1B
1B
00
1E
33
03
3E
66
C6
CC
76
ENDCHAR
STARTCHAR lacute
ENCODING 229
SWIDTH 278 0
DWIDTH 4 0
BBX 6 14 1 0
BITMAP
0C
18
00
18
18
30
30
30
60
60
60
60
C0
C0
ENDCHAR
STARTCHAR cacute
ENCODING 230
SWIDTH 556 0
DWIDTH 8 0
BBX 8 11 1 0
BITMAP
03
06
00
1E
33
63
60
C0
C6
CC
78
ENDCHAR
STARTCHAR ccedilla
ENCODING 231
SWIDTH 556 0
DWIDTH 8 0
BBX 9 11 0 -3
BITMAP
0F00
1980
3180
3000
6000
6300
6600
3C00
1000
D800
7000
ENDCHAR
STARTCHAR ccaron
ENCODING 232
SWIDTH 556 0
DWIDTH 8 0
BBX 8 11 1 0
BITMAP
1B
0E
00
1E
33
63
60
C0
C6
CC
78
ENDCHAR
STARTCHAR eacute
ENCODING 233
SWIDTH 556 0
DWIDTH 8 0
BBX 8 11 1 0
BITMAP
03
06
00
1E
33
63
7E
C0
C0
CC
78
ENDCHAR
STARTCHAR eogonek
ENCODING 234
SWIDTH 556 0
DWIDTH 8 0
BBX 8 11 1 -3
BITMAP
1E
33
63
7E
C0
C0
CC
78
20
40
70
ENDCHAR
STARTCHAR edieresis
ENCODING 235
SWIDTH 556 0
DWIDTH 8 0
BBX 8 11 1 0
BITMAP
1B
1B
00
1E
33
63
7E
C0
C0
CC
78
ENDCHAR
STARTCHAR ecaron
ENCODING 236
SWIDTH 556 0
DWIDTH 8 0
BBX 8 11 1 0
BITMAP
1B
0E
00
1E
33
63
7E
C0
C0
CC
78
ENDCHAR
STARTCHAR iacute
ENCODING 237
SWIDTH 278 0
DWIDTH 4 0
BBX 5 11 1 0
BITMAP
18
30
00
30
30
30
60
60
60
C0
C0
ENDCHAR
STARTCHAR icircumflex
ENCODING 238
SWIDTH 278 0
DWIDTH 4 0
BBX 6 11 1 0
BITMAP
38
6C
00
30
30
30
60
60
60
C0
C0
ENDCHAR
STARTCHAR dcaron
ENCODING 239
SWIDTH 746 0
DWIDTH 11 0
BBX 13 11 1 0
BITMAP
00D8
00C8
0190
1D80
3380
6180
6300
C300
C300
CE00
7600
ENDCHAR
STARTCHAR dmacron
ENCODING 240
SWIDTH 611 0
DWIDTH 9 0
BBX 11 11 1 0
BITMAP
00C0
0FE0
0180
1D80
3380
6180
6300
C300
C300
CE00
7600
ENDCHAR
STARTCHAR nacute
ENCODING 241
SWIDTH 611 0
DWIDTH 9 0
BBX 9 11 1 0
BITMAP
0300
0600
0000
3700
3980
3180
6300
6300
6300
C600
C600
ENDCHAR
STARTCHAR ncaron
ENCODING 242
SWIDTH 611 0
DWIDTH 9 0
BBX 9 11 1 0
BITMAP
0D80
0700
0000
3700
3980
3180
6300
6300
6300
C600
C600
ENDCHAR
STARTCHAR oacute
ENCODING 243
SWIDTH 611 0
DWIDTH 8 0
BBX 8 11 1 0
BITMAP
03
06
00
1E
33
63
63
C6
C6
CC
78
ENDCHAR
STARTCHAR ocircumflex
ENCODING 244
SWIDTH 611 0
DWIDTH 8 0
BBX 8 11 1 0
BITMAP
0E
1B
00
1E
33
63
63
C6
C6
CC
78
ENDCHAR
STARTCHAR ohungarumlaut
ENCODING 245
SWIDTH 611 0
DWIDTH 8 0
BBX 9 11 1 0
BITMAP
0D80
1B00
0000
1E00
3300
6300
6300
C600
C600
CC00
7800
ENDCHAR
STARTCHAR odieresis
ENCODING 246
SWIDTH 611 0
DWIDTH 8 0
BBX 8 11 1 0
BITMAP
1B
1B
00
1E
33
63
63
C6
C6
CC
78
ENDCHAR
STARTCHAR divide
ENCODING 247
SWIDTH 584 0
DWIDTH 9 0
BBX 7 7 2 1
BITMAP
18
18
00
FE
00
30
30
ENDCHAR
STARTCHAR rcaron
ENCODING 248
SWIDTH 389 0
DWIDTH 6 0
BBX 8 11 1 0
BITMAP
1B
0E
00
36
3E
30
60
60
60
C0
C0
ENDCHAR
STARTCHAR uring
ENCODING 249
SWIDTH 611 0
DWIDTH 9 0
BBX 9 11 1 0
BITMAP
0E00
1B00
0E00
3180
3180
6180
6300
6300
C600
CE00
7600
ENDCHAR
STARTCHAR uacute
ENCODING 250
SWIDTH 611 0
DWIDTH 9 0
BBX 9 11 1 0
BITMAP
0300
0600
0000
3180
3180
6180
6300
6300
C600
CE00
7600
ENDCHAR
STARTCHAR uhungarumlaut
ENCODING 251
SWIDTH 611 0
DWIDTH 9 0
BBX 9 11 1 0
BITMAP
0D80
1B00
0000
3180
3180
6180
6300
6300
C600
CE00
7600
ENDCHAR
STARTCHAR udieresis
ENCODING 252
SWIDTH 611 0
DWIDTH 9 0
BBX 9 11 1 0
BITMAP
1B00
1B00
0000
3180
3180
6180
6300
6300
C600
CE00
7600
ENDCHAR
STARTCHAR yacute
ENCODING 253
SWIDTH 556 0
DWIDTH 7 0
BBX 9 14 0 -3
BITMAP
0300
0600
0000
3180
3180
3300
3300
3600
3600
1C00
1800
3000
6000
C000
ENDCHAR
STARTCHAR tcedilla
ENCODING 254
SWIDTH 333 0
DWIDTH 5 0
BBX 7 13 0 -3
BITMAP
0C
0C
3E
18
18
30
30
60
60
30
10
D8
70
ENDCHAR
STARTCHAR dotaccent
ENCODING 255
SWIDTH 404 0
DWIDTH 6 0
BBX 2 2 2 9
BITMAP
C0
C0
ENDCHAR
ENDFONT
